# xmcd
#
# Track frame offsets:
#	150
#	13608
#	26794
#	37956
#	52221
#	70309
#	82823
#	95980
#	107454
#	121725
#	131796
#
# Disc length: 1916 seconds
#
# Revision: 0
# Processed by: cddbd v1.5.1PL2 Copyright (c) Steve Scherf et al.
# Submitted via: EasyCDDAExtractor 4.6.9.1
#
DISCID=91077a0b
DTITLE=Charlie Rich - Behind Closed Doors
DYEAR=1973
DGENRE=Country
TTITLE0=Behind Closed Doors
TTITLE1=If You Wouldn't Be My Lady
TTITLE2=You Never Really Wanted Me
TTITLE3=A Sunday Kind Of Woman
TTITLE4=Peace On You
TTITLE5=The Most Beautiful Girl
TTITLE6=I Take It On Home
TTITLE7='Til I Can't Take It Anymore
TTITLE8=We Love Each Other
TTITLE9=I'm Not Going Hungry Anymore
TTITLE10=Nothing In The World (To Do With Me)
EXTD=
EXTT0=
EXTT1=
EXTT2=
EXTT3=
EXTT4=
EXTT5=
EXTT6=
EXTT7=
EXTT8=
EXTT9=
EXTT10=
PLAYORDER=
